PathFileType	4	(X/Y/Z)	4_coords_data.trc
DataRate	CameraRate	NumFrames	NumMarkers	Units	OrigDataRate	OrigDataStartFrame	OrigNumFrames
30.0	30.0	8	21	m	30.0	1	47
Frame#	Time	THUMB_TIP	THUMB_IP	THUMB_MCP	THUMB_CMC	INDEX_TIP	INDEX_DIP	INDEX_PIP	INDEX_MCP	MIDDLE_TIP	MIDDLE_DIP	MIDDLE_PIP	MIDDLE_MCP	RING_TIP	RING_DIP	RING_PIP	RING_MCP	PINKY_TIP	PINKY_DIP	PINKY_PIP	PINKY_MCP	WRIST
X1	Y1	Z1	X2	Y2	Z2	X3	Y3	Z3	X4	Y4	Z4	X5	Y5	Z5	X6	Y6	Z6	X7	Y7	Z7	X8	Y8	Z8	X9	Y9	Z9	X10	Y10	Z10	X11	Y11	Z11	X12	Y12	Z12	X13	Y13	Z13	X14	Y14	Z14	X15	Y15	Z15	X16	Y16	Z16	X17	Y17	Z17	X18	Y18	Z18	X19	Y19	Z19	X20	Y20	Z20	X21	Y21	Z21
0	0.0	-0.05521170043945312	-0.10636499786376953	1.0275699462890624	-0.04900510025024414	-0.07854910278320312	1.036219970703125	-0.05868090057373047	-0.05691109848022461	1.0602900390625	-0.05752780151367187	-0.021660299301147462	1.07225	-0.05446450042724609	-0.02675200080871582	1.0534300537109376	-0.037371898651123045	-0.028046199798583984	1.040530029296875	-0.03138800048828125	-0.03507310104370117	1.0147899780273437	-0.0776603012084961	-0.03753300094604492	1.01575	-0.04562429809570313	-0.014080699920654296	1.0520899658203124	-0.03507519912719727	-0.010021300315856933	1.040050048828125	-0.02889539909362793	-0.012588199615478515	1.01302001953125	-0.07706069946289062	-0.01167140007019043	1.0083300170898437	-0.045590900421142576	0.0006684370040893551	1.05502001953125	-0.03724959945678711	0.008768469810485839	1.0470999755859376	-0.024427600860595703	0.01086929988861084	1.0245999755859374	-0.07087259674072266	0.01353190040588379	1.0100499877929687	0.0	0.0	0.0	-0.03771709823608398	0.023699199676513672	1.04252001953125	-0.03346030044555664	0.03191139984130859	1.0244000244140625	-0.06931700134277344	0.03723699951171875	1.016469970703125	-0.08597599792480469	0.007721049785614014	1.0895899658203125
1	0.03333333333333333	-0.05464400100708008	-0.1062979965209961	1.0275799560546874	-0.04938610076904297	-0.07838529968261719	1.0362099609375	-0.058281299591064456	-0.05830229949951172	1.0601700439453126	-0.06052909851074219	-0.019926000595092773	1.074219970703125	-0.05392919921875	-0.028583900451660156	1.0499000244140626	-0.03798550033569336	-0.029259599685668946	1.039449951171875	-0.032185199737548825	-0.0354385986328125	1.0152100219726563	-0.07700890350341796	-0.037678699493408206	1.014780029296875	-0.04556529998779297	-0.01351039981842041	1.0501700439453125	-0.03664559936523438	-0.010823200225830078	1.041300048828125	-0.028917999267578126	-0.012003600120544433	1.0123699951171874	-0.07680259704589844	-0.012219200134277344	1.0076500244140625	-0.04812089920043945	0.002706870079040527	1.0515899658203125	-0.038952999114990235	0.0070935702323913575	1.04777001953125	-0.025887399673461913	0.010762900352478027	1.0235399780273438	-0.07104630279541016	0.013062299728393555	1.010239990234375	-0.05374850082397461	0.020418100357055664	1.052239990234375	-0.039241100311279295	0.024448999404907225	1.0436300048828124	-0.03331380081176758	0.03166500091552735	1.0244300537109374	-0.06935569763183594	0.03681700134277344	1.0163800048828124	-0.08542990112304688	0.007874300003051758	1.091780029296875
2	0.06666666666666667	-0.05459439849853515	-0.10641500091552734	1.027719970703125	-0.04948820114135742	-0.07850080108642578	1.0363499755859376	-0.058525901794433594	-0.058416099548339845	1.060219970703125	-0.06087099838256836	-0.020040800094604492	1.074300048828125	-0.05435660171508789	-0.02878459930419922	1.0496300048828124	-0.03828200149536133	-0.02935449981689453	1.039449951171875	-0.03241130065917969	-0.03555080032348633	1.0153099975585937	-0.07725070190429688	-0.037875801086425784	1.0148400268554687	-0.045907501220703126	-0.01356719970703125	1.0501600341796875	-0.03696139907836914	-0.010922699928283692	1.0413299560546876	-0.029179100036621095	-0.01216790008544922	1.0125800170898438	-0.07709249877929687	-0.012388600349426269	1.0077899780273438	-0.04888449859619141	0.0028533198833465574	1.0527900390625	-0.039326499938964844	0.006996920108795166	1.04777001953125	-0.02619379997253418	0.010610600471496583	1.0236199951171876	-0.07130149841308593	0.012916099548339844	1.010280029296875	-0.05420320129394531	0.020549100875854494	1.05218994140625	-0.03943040084838867	0.024280000686645507	1.0438399658203126	-0.033647300720214844	0.03154050064086914	1.0243399658203125	-0.06956430053710938	0.036643001556396486	1.01622998046875	-0.08573280334472656	0.007749110221862793	1.0918199462890625
3	0.1	-0.05467829895019531	-0.10633899688720704	1.0278199462890625	-0.0496327018737793	-0.07838379669189453	1.036469970703125	-0.058749401092529296	-0.05830659866333008	1.0604100341796876	-0.061113201141357425	-0.019921300888061523	1.074449951171875	-0.05455820083618164	-0.028602800369262694	1.050199951171875	-0.03854880142211914	-0.02926129913330078	1.03972998046875	-0.032609901428222655	-0.03546670150756836	1.015510009765625	-0.07744080352783203	-0.0377577018737793	1.015	-0.046073898315429684	-0.01356719970703125	1.05006005859375	-0.03734749984741211	-0.010844799995422363	1.0418599853515624	-0.029392499923706055	-0.012064900398254395	1.0126300048828125	-0.07727770233154296	-0.012281000137329101	1.007969970703125	-0.04929909896850586	0.0027665400505065916	1.05231005859375	-0.03957880020141601	0.00701131010055542	1.048030029296875	-0.026375799179077147	0.01066349983215332	1.0239199829101562	-0.0715250015258789	0.013019100189208984	1.010469970703125	-0.05422959899902344	0.020631200790405275	1.0519000244140626	-0.039681999206542966	0.02431100082397461	1.044030029296875	-0.03386569976806641	0.031616100311279295	1.02477001953125	-0.06987770080566406	0.03675579833984375	1.0164500122070312	-0.08590619659423829	0.007785759925842285	1.091969970703125
4	0.13333333333333333	-0.054869098663330076	-0.10612400054931641	1.0280899658203124	-0.049898601531982424	-0.07819809722900391	1.03675	-0.0590078010559082	-0.05811349868774414	1.0606800537109375	-0.06129109954833984	-0.01981730079650879	1.07468994140625	-0.05486880111694336	-0.02844930076599121	1.05018994140625	-0.03877830123901367	-0.029083099365234375	1.03993994140625	-0.032882801055908205	-0.03525740051269531	1.015739990234375	-0.0777428970336914	-0.037534599304199216	1.01525	-0.046430801391601564	-0.01336110019683838	1.05047998046875	-0.03745249938964844	-0.010708100318908691	1.0418800048828125	-0.029709299087524413	-0.01186649990081787	1.0129099731445312	-0.0774875030517578	-0.012084500312805176	1.0081300048828126	-0.048079299926757815	0.002695319890975952	1.0523900146484375	-0.039828399658203124	0.0072120800018310545	1.04831005859375	-0.026686399459838868	0.010849599838256835	1.0240999755859375	-0.07182080078125	0.013238100051879883	1.01075	-0.05465629959106445	0.020546600341796874	1.0529200439453126	-0.04002090072631836	0.02457670021057129	1.0441400146484374	-0.034170398712158205	0.03180850028991699	1.0248800048828124	-0.07018019866943359	0.03697909927368164	1.0168400268554687	-0.08621009826660156	0.007926539897918701	1.09227001953125
5	0.16666666666666666	-0.055182899475097656	-0.10586799621582031	1.02831005859375	-0.05020729827880859	-0.07797630310058594	1.037030029296875	-0.05936740112304688	-0.05793280029296875	1.06097998046875	-0.06170349884033203	-0.019515100479125976	1.0750799560546875	-0.055136199951171874	-0.02830229949951172	1.0503800048828125	-0.03913249969482422	-0.028844400405883788	1.040300048828125	-0.0332406005859375	-0.03500849914550781	1.016030029296875	-0.07806809997558593	-0.03728609848022461	1.0156099853515625	-0.04651330184936524	-0.013086199760437012	1.050469970703125	-0.03782789993286133	-0.010386699676513672	1.04231005859375	-0.030046100616455077	-0.011580100059509277	1.01322998046875	-0.07788690185546875	-0.011832300186157227	1.0085599975585937	-0.05006930160522461	0.003095870018005371	1.0540400390625	-0.040114601135253905	0.007483320236206055	1.0486400146484376	-0.027008499145507812	0.011126399993896485	1.02431005859375	-0.07218830108642578	0.01351509952545166	1.0111699829101561	-0.054804100036621096	0.02092169952392578	1.052719970703125	-0.040339298248291015	0.024742900848388674	1.0446400146484376	-0.034515399932861325	0.03208879852294922	1.02525	-0.07043579864501953	0.03720980072021484	1.017239990234375	-0.08669000244140625	0.008260239601135254	1.0925999755859375
6	0.2	-0.05546269989013672	-0.10561000061035156	1.028510009765625	-0.05052579879760742	-0.07774430084228516	1.037300048828125	-0.059677398681640625	-0.05775960159301758	1.061300048828125	-0.062126399993896485	-0.019472900390625	1.075510009765625	-0.05555059814453125	-0.028027599334716796	1.051030029296875	-0.03936019897460938	-0.028699199676513673	1.04072998046875	-0.03347090148925781	-0.03481579971313477	1.0163300170898437	-0.078310302734375	-0.037118698120117186	1.01597998046875	-0.04691439819335937	-0.01293340015411377	1.050969970703125	-0.03815570068359375	-0.010209799766540528	1.042719970703125	-0.030248300552368164	-0.01136110019683838	1.01372998046875	-0.07813849639892578	-0.01160890007019043	1.00902001953125	-0.04987699890136719	0.003239150047302246	1.05331005859375	-0.04049190139770508	0.00762932014465332	1.04902001953125	-0.027284299850463867	0.011307600021362305	1.0248499755859375	-0.07239340209960937	0.013693499565124511	1.011510009765625	-0.055297798156738284	0.021191400527954103	1.053530029296875	-0.04068709945678711	0.024880699157714844	1.0451199951171875	-0.03475249862670898	0.032267799377441404	1.02568994140625	-0.07077339935302734	0.037404899597167966	1.0177100219726563	-0.08697650146484374	0.008288310050964356	1.0930899658203126
7	0.23333333333333334	-0.0555890007019043	-0.10541699981689454	1.02877001953125	-0.05070000076293945	-0.07754679870605469	1.0375400390625	-0.05989070129394531	-0.057629501342773434	1.0616099853515626	-0.062370201110839844	-0.019405399322509766	1.0758199462890625	-0.05570050048828125	-0.027979000091552735	1.0510999755859376	-0.0396166000366211	-0.02855739974975586	1.0411800537109375	-0.03368470001220703	-0.03463090133666992	1.0168499755859375	-0.07849720001220703	-0.037020698547363284	1.0163400268554688	-0.047157199859619144	-0.01286079978942871	1.0515799560546875	-0.038538501739501956	-0.010100799560546875	1.043010009765625	-0.03048240089416504	-0.011242400169372559	1.014010009765625	-0.0782936019897461	-0.011491100311279296	1.0093099975585937	-0.05100220108032227	0.0032804100513458253	1.05431005859375	-0.04076129913330078	0.007722310066223145	1.0493900146484374	-0.0275807991027832	0.011469099998474121	1.0250799560546875	-0.07262650299072265	0.013810099601745606	1.0119000244140626	-0.05549169921875	0.021130199432373046	1.0538299560546875	-0.040817100524902346	0.025010499954223633	1.045550048828125	-0.03500870132446289	0.03236309814453125	1.02597998046875	-0.07090470123291015	0.03745589828491211	1.0180999755859375	-0.08726260375976562	0.008337420463562012	1.0933800048828124
